<?xml version="1.0" encoding="UTF-8" standalone="no"?>
<svg
   xmlns:dc="http://purl.org/dc/elements/1.1/"
   xmlns:cc="http://creativecommons.org/ns#"
   xmlns:rdf="http://www.w3.org/1999/02/22-rdf-syntax-ns#"
   xmlns:svg="http://www.w3.org/2000/svg"
   xmlns="http://www.w3.org/2000/svg"
   xmlns:sodipodi="http://sodipodi.sourceforge.net/DTD/sodipodi-0.dtd"
   xmlns:inkscape="http://www.inkscape.org/namespaces/inkscape"
   width="192"
   height="192"
   viewBox="0 0 153.60002 153.59999"
   version="1.1"
   id="svg3002"
   inkscape:version="0.91 r13725"
   sodipodi:docname="copos_logo_blob.svg">
  <metadata
     id="metadata3017">
    <rdf:RDF>
      <cc:Work
         rdf:about="">
        <dc:format>image/svg+xml</dc:format>
        <dc:type
           rdf:resource="http://purl.org/dc/dcmitype/StillImage" />
        <dc:title></dc:title>
      </cc:Work>
    </rdf:RDF>
  </metadata>
  <defs
     id="defs3015" />
  <sodipodi:namedview
     pagecolor="#ffffff"
     bordercolor="#666666"
     borderopacity="1"
     objecttolerance="10"
     gridtolerance="10"
     guidetolerance="10"
     inkscape:pageopacity="0"
     inkscape:pageshadow="2"
     inkscape:window-width="1920"
     inkscape:window-height="1018"
     id="namedview3013"
     showgrid="false"
     fit-margin-right="0"
     fit-margin-top="0"
     fit-margin-left="0"
     fit-margin-bottom="0"
     inkscape:zoom="1.5831859"
     inkscape:cx="188.0333"
     inkscape:cy="36.670787"
     inkscape:window-x="-8"
     inkscape:window-y="-8"
     inkscape:window-maximized="1"
     inkscape:current-layer="svg3002" />
  <g
     id="surface1"
     transform="matrix(1.03387,0,0,1.03387,-91.517936,-218.02693)">
    <path
       style="fill:#d72319;fill-opacity:1;fill-rule:evenodd;stroke:none"
       d="m 171.21484,211.30469 c 22.54297,2.60156 43.67969,15.5 55.92578,36.74609 12.2461,21.13281 12.79297,45.84766 3.79297,66.76563 -24.38672,1.30078 -48.66406,-10.73047 -61.78125,-33.38282 -13.0039,-22.54687 -11.3789,-49.64453 2.0625,-70.1289"
       id="path3005"
       inkscape:connector-curvature="0" />
    <path
       style="fill:#d72319;fill-opacity:1;fill-rule:evenodd;stroke:none"
       d="m 226.71094,322.94531 c -6.28907,10.6211 -15.28516,19.94531 -26.77735,26.55469 -35.55078,20.48437 -80.96093,8.34375 -101.449215,-27.20313 -18.75,-32.51953 -10.1875,-73.27343 18.535155,-95.71093 4.76953,54.08984 50.18359,96.46875 105.46094,96.46875 1.40625,0 2.8164,0 4.23047,-0.10938"
       id="path3007"
       inkscape:connector-curvature="0" />
  </g>
</svg>
